<?xml version="1.0" encoding="utf-8"?>
<svg version="1.1" id="Layer_1" xmlns="http://w3.org" xmlns:xlink="http://w3.org" x="0px" y="0px"
	 viewBox="0 0 512 512" style="enable-background:new 0 0 512 512;" xml:space="preserve">
<style type="text/css">
	.bg-color{fill:#F5F2EB;}
	.logo-mark{fill:#112031;}
</style>
<!-- Solid Background Canvas -->
<rect class="bg-color" width="512" height="512"/>

<!-- Custom Vector Lettering Paths for NB Monogram -->
<g id="NB_Monogram" class="logo-mark">
	<path d="M165.4,364c-8.9,13.6-21.2,25.2-34.9,32.3c-13.8,7.1-30.8,9.7-46.1,4.4c-12-4.1-22.3-13.1-28.1-24.8
		c-5.8-11.7-6.2-25.5-2.2-38.1c8.1-25.4,24.3-48.2,43.3-67c26.9-26.6,59-46.9,94.2-61.2c8.8-3.6,18.1-6.6,27.5-8
		c4.8-0.7,9.8-0.7,14.4,0.9c4.2,1.5,8,4.5,10.6,8.2c4.8,6.8,5.4,15.6,5.1,23.9c-1,24.8-8.1,48.9-15.9,72.4
		c-10.4,31.4-23.3,61.9-38.7,91.1c-6.1,11.5-12.8,23-21,33.1c-5,6.2-11.2,11.7-18.8,14.3c-7.3,2.5-15.6,1.8-22.4-2.1
		c-10-5.8-15.9-16.7-18.6-27.9c-5.2-21.4-2.7-44,4.9-64.8c6-16.5,14.8-31.9,25.4-45.9c3.9-5.1,8.3-10,13.4-14
		c4.2-3.3,9.4-5.6,14.7-5.1c4.5,0.4,8.7,2.7,11.7,6.1c5.2,5.9,6.7,14.3,6.5,22.1c-0.6,23.3-9.5,45.4-19.4,66.4
		c-4.4,9.3-9.4,18.4-15,27.1c-2,3.1-4.4,6.2-7.5,8.1c-2.3,1.4-5.2,1.9-7.8,1.1c-2.3-0.7-4.3-2.4-5.5-4.5c-2.3-4.1-2.4-9.1-1.8-13.8
		c1.9-15.2,8.9-29.3,16.5-42.5c10.4-18,22.7-34.7,36.5-50.4c3.1-3.5,6.4-7.2,10.4-10c3.1-2.2,7.1-3.4,10.8-2.3
		c3.2,0.9,5.9,3.3,7.5,6.2c4.4,8.1,3.4,18.1,1.1,27.1c-5.1,20.4-14,39.6-23.7,58.1c-13,24.8-28.7,48.1-46.7,69.2
		c-3.9,4.6-8.1,9.2-12.9,12.9c-4,3.1-9,5.2-14,4.9c-4.1-0.2-8-2.2-10.7-5.3c-4.8-5.5-6.2-13.2-6.1-20.4c0.4-25.1,9.9-49,20.6-71.7
		c14.2-30.1,31.7-58.4,51-85.3c3.4-4.8,7.1-9.7,11.5-13.7c3.9-3.6,8.9-6.1,14.2-5.9c4.5,0.2,8.7,2.2,11.8,5.4
		c6,6.2,8.1,15.2,8.2,23.8C202.9,268.4,185.3,318.4,165.4,364z"/>
	<path d="M228.6,392.2c12.2,24.3,31,44.7,54.7,58.5c23.6,13.8,51.8,19.9,79,16.9c25.4-2.8,50-13.4,69.5-29.8
		c18.5-15.5,32.3-36.5,39.4-59.5c6.3-20.5,6.9-42.5,1.5-63.3c-4.9-18.9-15.1-36.3-29.7-49.3c-12-10.7-26.9-18.2-42.7-21.4
		c-13.3-2.7-27.1-1.8-40.2,1.9c-10.4,2.9-20.3,7.9-29.2,14.2c-7.3,5.2-13.6,11.8-18.4,19.4c-1.9,3-3.4,6.2-4.5,9.5
		c-1,3.1-1.5,6.5-1.1,9.8c0.7,5.5,4,10.4,8.5,13.6c5,3.6,11.3,5.1,17.4,4.4c12-1.4,23-7.9,32.3-15.4c13-10.5,23.6-23.7,32.3-38.1
		c3.2-5.3,6.1-10.8,8.6-16.5c1.1-2.5,2.1-5.2,2.4-7.9c0.3-2.3-0.3-4.8-1.7-6.7c-1.8-2.4-4.8-3.6-7.8-3.9c-7.2-0.7-14.5,1.4-21,4.7
		c-14.7,7.5-27.2,18.9-37.5,31.9c-12.7,16.1-22.2,34.5-28.7,54c-5,15.1-7.4,31.1-6.7,47c0.6,13.2,4.1,26.4,10.8,37.8
		c5.9,10,14.5,18.1,24.8,23.3c11.5,5.8,24.6,8,37.4,6.5c14.2-1.6,27.8-7.7,39.2-16.3c12-9.1,21.5-21,27.9-34.4
		c5.3-11.1,8.1-23.3,8.2-35.6c0.1-14.3-3.8-28.5-11.2-40.7c-6.1-10.1-15.1-18.3-25.7-23.5c-9.3-4.6-19.7-6.5-30.1-5.6
		c-10.4,0.9-20.5,4.3-29.3,9.8c-4.4,2.8-8.4,6.2-11.9,10.1c-2.9,3.2-5.3,7-6.8,11c-1.8,4.7-2.1,9.9-1,14.8c1.5,6.7,5.6,12.5,11,16.7
		c6.1,4.8,13.8,7.3,21.5,7.1c11.5-0.3,22.7-5.1,31.7-12.2c8.9-7,15.7-16.4,19.9-27c1.7-4.3,2.9-8.8,3.5-13.4
		c0.5-3.8,0.4-7.8-0.8-11.5c-1-3.1-2.9-6-5.6-7.9c-2.9-2.1-6.6-2.9-10.1-2.7c-7.9,0.5-15.4,4.2-21.5,9.2c-8.9,7.3-15.7,17-20.3,27.7
		c-3.4,7.9-5.3,16.4-5.6,25c-0.3,10.1,2.1,20.3,6.8,29.3c5.1,9.8,13,17.7,22.6,23.1c11.1,6.2,24,9,36.8,8c14.3-1.1,28.2-6.8,39.9-15.1
		c12.9-9.2,23.2-21.7,30-36c5.7-12,8.5-25.2,8.1-38.5c-0.4-14.7-4.9-29.2-12.9-41.5c-6.9-10.6-16.9-19.1-28.7-24.3
		c-11.1-4.9-23.4-6.6-35.4-5c-14,1.9-27.4,7.8-38.6,16.4c-11.9,9.2-21.3,21.2-27.5,34.8c-3.1,6.8-5.4,14-6.9,21.3
		C230.1,360.7,228.3,376.6,228.6,392.2z"/>
</g>
</svg>
